<svg xmlns="http://www.w3.org/2000/svg" viewBox="0 0 1800 900" width="1800" height="900" font-family="Inter, 'Segoe UI', system-ui, -apple-system, Roboto, Helvetica, Arial, sans-serif" role="img" aria-labelledby="E-04-firmware-title E-04-firmware-desc">
<title id="E-04-firmware-title">E-04 · Firmware components (C4 L3)</title>
<desc id="E-04-firmware-desc">What neuroedge build generates, what runs in app_main, and what the chip talks to. No FreeRTOS tasks, no GPIO, no audio yet.</desc>
<defs>
<marker id="arr" viewBox="0 0 10 10" refX="9" refY="5" markerWidth="7" markerHeight="7" orient="auto-start-reverse"><path d="M0,0 L10,5 L0,10 z" fill="#334155"/></marker>
</defs>
<rect width="1800" height="900" fill="#ffffff"/>
<text x="32.0" y="42.0" font-size="22" fill="#0f172a" text-anchor="start" font-weight="700">E-04 · Firmware components (C4 L3)</text>
<text x="32.0" y="66.0" font-size="13" fill="#475569" text-anchor="start">What neuroedge build generates, what runs in app_main, and what the chip talks to. No FreeRTOS tasks, no GPIO, no audio yet.</text>
<rect x="40" y="100" width="400" height="520" rx="14" fill="#f8fbff" stroke="#2563eb" stroke-width="1.6"/>
<text x="54.0" y="121.0" font-size="13" fill="#2563eb" text-anchor="start" font-weight="700">Generated on the host</text>
<rect x="480" y="100" width="860" height="610" rx="14" fill="#f7fdf9" stroke="#15803d" stroke-width="1.6"/>
<text x="494.0" y="121.0" font-size="13" fill="#15803d" text-anchor="start" font-weight="700">Firmware image — C99 on ESP-IDF v5.4</text>
<rect x="480" y="750" width="860" height="120" rx="14" fill="#f7fdf9" stroke="#15803d" stroke-width="1.6"/>
<text x="494.0" y="771.0" font-size="13" fill="#15803d" text-anchor="start" font-weight="700">Flash 16 MB — partitions.csv</text>
<rect x="1400" y="100" width="360" height="520" rx="14" fill="#fffaf5" stroke="#c2410c" stroke-width="1.6"/>
<text x="1414.0" y="121.0" font-size="13" fill="#c2410c" text-anchor="start" font-weight="700">Outside the chip</text>
<path d="M240.0,260.0 L240.0,330.0" fill="none" stroke="#334155" stroke-width="1.5" marker-end="url(#arr)"/>
<path d="M410.0,395.0 L460.0,395.0 L460.0,225.0 L510.0,225.0" fill="none" stroke="#334155" stroke-width="1.5" marker-end="url(#arr)"/>
<path d="M630.0,300.0 L630.0,360.0" fill="none" stroke="#334155" stroke-width="1.5" marker-end="url(#arr)"/>
<path d="M910.0,300.0 L910.0,360.0" fill="none" stroke="#334155" stroke-width="1.5" marker-end="url(#arr)"/>
<path d="M1180.0,300.0 L1180.0,360.0" fill="none" stroke="#334155" stroke-width="1.5" marker-end="url(#arr)"/>
<path d="M1290.0,205.0 L1430.0,205.0" fill="none" stroke="#334155" stroke-width="1.5" marker-end="url(#arr)"/>
<path d="M1290.0,415.0 L1430.0,415.0" fill="none" stroke="#334155" stroke-width="1.5" marker-end="url(#arr)"/>
<path d="M740.0,500.0 L740.0,500.0 L740.0,790.0 L740.0,790.0" fill="none" stroke="#334155" stroke-width="1.5" marker-end="url(#arr)"/>
<rect x="70" y="150" width="340" height="110" rx="10" fill="#dbeafe" stroke="#1d4ed8" stroke-width="1.6"/>
<text x="240.0" y="191.8" font-size="15" fill="#0f172a" text-anchor="middle" font-weight="700">neuroedge build --target esp32s3</text>
<text x="240.0" y="212.0" font-size="12.5" fill="#0f172a" text-anchor="middle">every check, then render</text>
<text x="240.0" y="230.1" font-size="12.5" fill="#0f172a" text-anchor="middle">build/esp32s3/ ESP-IDF project</text>
<rect x="70" y="330" width="340" height="130" rx="10" fill="#eff6ff" stroke="#3b82f6" stroke-width="1.6"/>
<text x="240.0" y="372.7" font-size="15" fill="#0f172a" text-anchor="middle" font-weight="700">components/ne_agent</text>
<text x="240.0" y="392.9" font-size="12.5" fill="#0f172a" text-anchor="middle">NETR tree per gate</text>
<text x="240.0" y="411.1" font-size="12.5" fill="#0f172a" text-anchor="middle">gate · pin · action tables</text>
<text x="240.0" y="429.2" font-size="12.5" fill="#0f172a" text-anchor="middle">self-test checks, host answers</text>
<rect x="70" y="500" width="340" height="100" rx="10" fill="#eff6ff" stroke="#3b82f6" stroke-width="1.6"/>
<text x="240.0" y="536.8" font-size="15" fill="#0f172a" text-anchor="middle" font-weight="700">ui/ — LVGL screens</text>
<text x="240.0" y="557.0" font-size="12.5" fill="#0f172a" text-anchor="middle">not linked yet · host goldens</text>
<text x="240.0" y="575.1" font-size="12.5" fill="#0f172a" text-anchor="middle" font-style="italic">◐ partial</text>
<rect x="510" y="150" width="780" height="150" rx="10" fill="#dcfce7" stroke="#15803d" stroke-width="1.6"/>
<text x="900.0" y="202.7" font-size="15" fill="#052e16" text-anchor="middle" font-weight="700">main/ — app_main, one task, sequential boot</text>
<text x="900.0" y="222.9" font-size="12.5" fill="#052e16" text-anchor="middle">memory_probe · gate_selftest · trace_vectors</text>
<text x="900.0" y="241.1" font-size="12.5" fill="#052e16" text-anchor="middle">self-test fails ⇒ halt: no gate runtime, no network</text>
<text x="900.0" y="259.2" font-size="12.5" fill="#052e16" text-anchor="middle">NE_SELFTEST · NE_TRACE DONE · NEUROEDGE_HEAP_JSON</text>
<rect x="510" y="360" width="240" height="140" rx="10" fill="#fee2e2" stroke="#b91c1c" stroke-width="2.2"/>
<text x="630.0" y="407.7" font-size="15" fill="#450a0a" text-anchor="middle" font-weight="700">ne_gate</text>
<text x="630.0" y="427.9" font-size="12.5" fill="#450a0a" text-anchor="middle">NETR walker</text>
<text x="630.0" y="446.1" font-size="12.5" fill="#450a0a" text-anchor="middle">token ledger, 4 slots</text>
<text x="630.0" y="464.2" font-size="12.5" fill="#450a0a" text-anchor="middle">no heap, stack ≤ 512 B</text>
<rect x="790" y="360" width="240" height="140" rx="10" fill="#eff6ff" stroke="#3b82f6" stroke-width="1.6"/>
<text x="910.0" y="407.7" font-size="15" fill="#0f172a" text-anchor="middle" font-weight="700">ne_trace</text>
<text x="910.0" y="427.9" font-size="12.5" fill="#0f172a" text-anchor="middle">NE1 JSON lines</text>
<text x="910.0" y="446.1" font-size="12.5" fill="#0f172a" text-anchor="middle">≤ 512 bytes each</text>
<text x="910.0" y="464.2" font-size="12.5" fill="#0f172a" text-anchor="middle">format only</text>
<rect x="1070" y="360" width="220" height="140" rx="10" fill="#eff6ff" stroke="#3b82f6" stroke-width="1.6"/>
<text x="1180.0" y="398.6" font-size="15" fill="#0f172a" text-anchor="middle" font-weight="700">ne_ota</text>
<text x="1180.0" y="418.9" font-size="12.5" fill="#0f172a" text-anchor="middle">signed A/B update</text>
<text x="1180.0" y="437.0" font-size="12.5" fill="#0f172a" text-anchor="middle">rollback · high-water</text>
<text x="1180.0" y="455.1" font-size="12.5" fill="#0f172a" text-anchor="middle">QEMU only</text>
<text x="1180.0" y="473.2" font-size="12.5" fill="#0f172a" text-anchor="middle" font-style="italic">◐ partial</text>
<rect x="800" y="560" width="490" height="120" rx="10" fill="#f8fafc" stroke="#15803d" stroke-width="1.6" stroke-dasharray="7 5"/>
<text x="1045.0" y="597.7" font-size="15" fill="#475569" text-anchor="middle" font-weight="700">on-chip HAL</text>
<text x="1045.0" y="617.9" font-size="12.5" fill="#475569" text-anchor="middle">GPIO · I2S audio · I2C sensors · LCD</text>
<text x="1045.0" y="636.1" font-size="12.5" fill="#475569" text-anchor="middle">TSK-S4-01 · I5</text>
<text x="1045.0" y="654.2" font-size="12.5" fill="#475569" text-anchor="middle" font-style="italic">○ planned</text>
<rect x="510" y="790" width="800" height="70" rx="10" fill="#f1f5f9" stroke="#475569" stroke-width="1.6"/>
<path d="M511,802 Q910.0,814 1309,802" fill="none" stroke="#475569" stroke-width="1.2"/>
<text x="910.0" y="829.9" font-size="15" fill="#0f172a" text-anchor="middle" font-weight="700">factory · ota_0 · ota_1 (3.5 MB each) · nvs · otadata · storage</text>
<rect x="1430" y="150" width="300" height="110" rx="10" fill="#dbeafe" stroke="#1d4ed8" stroke-width="1.6"/>
<text x="1580.0" y="200.8" font-size="15" fill="#0f172a" text-anchor="middle" font-weight="700">neuroedge record · verify</text>
<text x="1580.0" y="221.1" font-size="12.5" fill="#0f172a" text-anchor="middle">UART NE1 lines → trace.v1</text>
<rect x="1430" y="360" width="300" height="110" rx="10" fill="#ffedd5" stroke="#c2410c" stroke-width="1.6"/>
<text x="1580.0" y="410.8" font-size="15" fill="#431407" text-anchor="middle" font-weight="700">OTA image server</text>
<text x="1580.0" y="431.1" font-size="12.5" fill="#431407" text-anchor="middle">any static HTTP(S) server</text>
<rect x="212.5" y="284.5" width="55.1" height="21.0" rx="4" fill="#ffffff" fill-opacity="0.96" stroke="#e2e8f0" stroke-width="0.8"/>
<text x="240.0" y="297.0" font-size="11.5" fill="#1e293b" text-anchor="middle" font-style="italic">renders</text>
<rect x="426.0" y="299.5" width="68.0" height="21.0" rx="4" fill="#ffffff" fill-opacity="0.96" stroke="#e2e8f0" stroke-width="0.8"/>
<text x="460.0" y="312.0" font-size="11.5" fill="#1e293b" text-anchor="middle" font-style="italic">linked in</text>
<rect x="567.0" y="319.5" width="125.9" height="21.0" rx="4" fill="#ffffff" fill-opacity="0.96" stroke="#e2e8f0" stroke-width="0.8"/>
<text x="630.0" y="332.0" font-size="11.5" fill="#1e293b" text-anchor="middle" font-style="italic">self-test · replay</text>
<rect x="863.1" y="319.5" width="93.7" height="21.0" rx="4" fill="#ffffff" fill-opacity="0.96" stroke="#e2e8f0" stroke-width="0.8"/>
<text x="910.0" y="332.0" font-size="11.5" fill="#1e293b" text-anchor="middle" font-style="italic">session lines</text>
<rect x="1110.6" y="319.5" width="138.8" height="21.0" rx="4" fill="#ffffff" fill-opacity="0.96" stroke="#e2e8f0" stroke-width="0.8"/>
<text x="1180.0" y="332.0" font-size="11.5" fill="#1e293b" text-anchor="middle" font-style="italic">boot · confirm · run</text>
<rect x="1327.1" y="214.5" width="35.8" height="21.0" rx="4" fill="#ffffff" fill-opacity="0.96" stroke="#e2e8f0" stroke-width="0.8"/>
<text x="1345.0" y="227.0" font-size="11.5" fill="#1e293b" text-anchor="middle" font-style="italic">UART</text>
<rect x="1330.3" y="409.5" width="29.3" height="21.0" rx="4" fill="#ffffff" fill-opacity="0.96" stroke="#e2e8f0" stroke-width="0.8"/>
<text x="1345.0" y="422.0" font-size="11.5" fill="#1e293b" text-anchor="middle" font-style="italic">GET</text>
<rect x="593.8" y="609.5" width="132.4" height="21.0" rx="4" fill="#ffffff" fill-opacity="0.96" stroke="#e2e8f0" stroke-width="0.8"/>
<text x="660.0" y="622.0" font-size="11.5" fill="#1e293b" text-anchor="middle" font-style="italic">trees read in place</text>
<rect x="1546.56" y="60" width="32" height="14" rx="3" fill="#ffffff" stroke="#475569" stroke-width="1.4" stroke-dasharray="7 5"/>
<text x="1590.6" y="71.0" font-size="12" fill="#334155" text-anchor="start">○ planned — not in code yet</text>
<rect x="1566.72" y="40" width="32" height="14" rx="3" fill="#ffffff" stroke="#475569" stroke-width="1.4"/>
<text x="1610.7" y="51.0" font-size="12" fill="#334155" text-anchor="start">◐ partial — part in code</text>
<rect x="1580.16" y="20" width="32" height="14" rx="3" fill="#ffffff" stroke="#475569" stroke-width="1.4"/>
<text x="1624.2" y="31.0" font-size="12" fill="#334155" text-anchor="start">done — in code on main</text>
</svg>
