<svg xmlns="http://www.w3.org/2000/svg" width="960" height="420" font-family="sans-serif">
<rect width="960" height="420" fill="#ffffff"/>
<text x="480" y="30" text-anchor="middle" font-size="20" font-weight="bold">E-05 · The Gate Spine: ToolCall → HAL (P-1)</text>
<g font-size="13">
<rect x="20" y="120" width="130" height="90" rx="10" fill="#f3e8fd" stroke="#9334e6"/><text x="85" y="146" text-anchor="middle" font-weight="bold">Sources</text><text x="85" y="166" text-anchor="middle" font-size="12">grammar · S1 · S2</text><text x="85" y="184" text-anchor="middle" font-size="12">mcp · test</text>
<rect x="175" y="120" width="130" height="90" rx="10" fill="#e8f4ff" stroke="#1a73e8"/><text x="240" y="146" text-anchor="middle" font-weight="bold">dispatch()</text><text x="240" y="166" text-anchor="middle" font-size="12">schema check</text><text x="240" y="184" text-anchor="middle" font-size="12">+ call_source</text>
<rect x="330" y="120" width="150" height="90" rx="10" fill="#dbeafe" stroke="#1a73e8"/><text x="405" y="146" text-anchor="middle" font-weight="bold">gate.evaluate</text><text x="405" y="166" text-anchor="middle" font-size="12">args → facts → walk</text><text x="405" y="184" text-anchor="middle" font-size="12">ALLOW / BLOCK</text>
<rect x="505" y="120" width="130" height="90" rx="10" fill="#fff4e5" stroke="#e8930c"/><text x="570" y="146" text-anchor="middle" font-weight="bold">on_block</text><text x="570" y="166" text-anchor="middle" font-size="12">deny · escalate</text><text x="570" y="184" text-anchor="middle" font-size="12">ask · degrade</text>
<rect x="660" y="120" width="130" height="90" rx="10" fill="#e9f9ee" stroke="#188038"/><text x="725" y="146" text-anchor="middle" font-weight="bold">TokenLedger</text><text x="725" y="166" text-anchor="middle" font-size="12">issue · single-use</text><text x="725" y="184" text-anchor="middle" font-size="12">TTL = p95 × 3</text>
<rect x="815" y="120" width="125" height="90" rx="10" fill="#e9f9ee" stroke="#188038"/><text x="877" y="146" text-anchor="middle" font-weight="bold">HAL</text><text x="877" y="166" text-anchor="middle" font-size="12">authorize</text><text x="877" y="184" text-anchor="middle" font-size="12">→ pins</text>
<g stroke="#1a73e8" stroke-width="2"><line x1="150" y1="165" x2="173" y2="165"/><line x1="305" y1="165" x2="328" y2="165"/><line x1="480" y1="165" x2="503" y2="165"/><line x1="635" y1="165" x2="658" y2="165"/><line x1="790" y1="165" x2="813" y2="165"/></g>
<rect x="175" y="250" width="765" height="70" rx="10" fill="#f1f3f4" stroke="#555"/><text x="557" y="275" text-anchor="middle" font-weight="bold">BLOCK path: no token · body never runs · pins unchanged · event + hook · ask opens PendingConfirmation · degrade re-enters via its own gate</text><text x="557" y="297" text-anchor="middle" font-size="12">REJECTED path (bad schema/args): protocol error, never reaches gate</text>
<text x="480" y="365" text-anchor="middle" font-size="12" fill="#555">The only lawful path to a pin · bypass attempts raise NE1001/NE1002 · Source: E-05.excalidraw</text>
</g></svg>
