<svg xmlns="http://www.w3.org/2000/svg" viewBox="0 0 1800 1000" width="1800" height="1000" font-family="Inter, 'Segoe UI', system-ui, -apple-system, Roboto, Helvetica, Arial, sans-serif" role="img" aria-labelledby="E-08-deployment-title E-08-deployment-desc">
<title id="E-08-deployment-title">E-08 · Deployment (C4)</title>
<desc id="E-08-deployment-desc">Where each part runs today, and where it will run once the boards arrive.</desc>
<defs>
<marker id="arr" viewBox="0 0 10 10" refX="9" refY="5" markerWidth="7" markerHeight="7" orient="auto-start-reverse"><path d="M0,0 L10,5 L0,10 z" fill="#334155"/></marker>
</defs>
<rect width="1800" height="1000" fill="#ffffff"/>
<text x="32.0" y="42.0" font-size="22" fill="#0f172a" text-anchor="start" font-weight="700">E-08 · Deployment (C4)</text>
<text x="32.0" y="66.0" font-size="13" fill="#475569" text-anchor="start">Where each part runs today, and where it will run once the boards arrive.</text>
<rect x="40" y="100" width="560" height="520" rx="14" fill="#f8fbff" stroke="#2563eb" stroke-width="1.6"/>
<text x="54.0" y="121.0" font-size="13" fill="#2563eb" text-anchor="start" font-weight="700">Developer machine — macOS or Linux</text>
<rect x="660" y="100" width="560" height="700" rx="14" fill="#fffef5" stroke="#a16207" stroke-width="1.6"/>
<text x="674.0" y="121.0" font-size="13" fill="#a16207" text-anchor="start" font-weight="700">GitHub Actions — ubuntu-latest</text>
<rect x="1280" y="100" width="480" height="700" rx="14" fill="#f7fdf9" stroke="#15803d" stroke-width="1.6"/>
<text x="1294.0" y="121.0" font-size="13" fill="#15803d" text-anchor="start" font-weight="700">Devices</text>
<path d="M190.0,270.0 L190.0,285.0 L190.0,300.0" fill="none" stroke="#334155" stroke-width="1.5" marker-end="url(#arr)"/>
<path d="M450.0,300.0 L450.0,285.0 L450.0,270.0" fill="none" stroke="#334155" stroke-width="1.5" marker-end="url(#arr)"/>
<path d="M570.0,210.0 L620.0,210.0 L620.0,515.0 L570.0,515.0" fill="none" stroke="#334155" stroke-width="1.5" marker-end="url(#arr)"/>
<path d="M1520.0,490.0 L1520.0,530.0" fill="none" stroke="#334155" stroke-width="1.5" marker-end="url(#arr)"/>
<path d="M570.0,170.0 L630.0,170.0 L630.0,880.0 L1520.0,880.0 L1520.0,780.0" fill="none" stroke="#334155" stroke-width="1.5" marker-end="url(#arr)"/>
<rect x="70" y="150" width="500" height="120" rx="10" fill="#dbeafe" stroke="#1d4ed8" stroke-width="1.6"/>
<text x="320.0" y="196.8" font-size="15" fill="#0f172a" text-anchor="middle" font-weight="700">python/.venv — neuroedge</text>
<text x="320.0" y="217.0" font-size="12.5" fill="#0f172a" text-anchor="middle">CLI, library, pytest</text>
<text x="320.0" y="235.1" font-size="12.5" fill="#0f172a" text-anchor="middle">sim target, MCP server</text>
<rect x="70" y="300" width="240" height="110" rx="10" fill="#dbeafe" stroke="#1d4ed8" stroke-width="1.6"/>
<text x="190.0" y="350.8" font-size="15" fill="#0f172a" text-anchor="middle" font-weight="700">Browser</text>
<text x="190.0" y="371.1" font-size="12.5" fill="#0f172a" text-anchor="middle">sim page, 127.0.0.1</text>
<rect x="330" y="300" width="240" height="110" rx="10" fill="#ffedd5" stroke="#c2410c" stroke-width="1.6"/>
<text x="450.0" y="350.8" font-size="15" fill="#431407" text-anchor="middle" font-weight="700">Claude Desktop</text>
<text x="450.0" y="371.1" font-size="12.5" fill="#431407" text-anchor="middle">starts mcp serve</text>
<rect x="70" y="440" width="500" height="150" rx="10" fill="#dbeafe" stroke="#1d4ed8" stroke-width="1.6"/>
<text x="320.0" y="492.7" font-size="15" fill="#0f172a" text-anchor="middle" font-weight="700">Docker espressif/idf:v5.4</text>
<text x="320.0" y="512.9" font-size="12.5" fill="#0f172a" text-anchor="middle">ESP-IDF build · Espressif QEMU</text>
<text x="320.0" y="531.1" font-size="12.5" fill="#0f172a" text-anchor="middle">qemu_boot.sh · qemu_ota.sh · run_ui_golden.sh</text>
<text x="320.0" y="549.2" font-size="12.5" fill="#0f172a" text-anchor="middle">ccache volume</text>
<rect x="690" y="150" width="500" height="130" rx="10" fill="#fef9c3" stroke="#a16207" stroke-width="1.6"/>
<text x="940.0" y="192.7" font-size="15" fill="#422006" text-anchor="middle" font-weight="700">ci-sim-linux.yml</text>
<text x="940.0" y="212.9" font-size="12.5" fill="#422006" text-anchor="middle">tests on Python 3.11 · 3.12 · 3.13</text>
<text x="940.0" y="231.1" font-size="12.5" fill="#422006" text-anchor="middle">linux-hal: gpio-sim · i2c-stub + lm75 · vkms</text>
<text x="940.0" y="249.2" font-size="12.5" fill="#422006" text-anchor="middle">wheel-smoke · lint · ui-golden</text>
<rect x="690" y="320" width="500" height="130" rx="10" fill="#fef9c3" stroke="#a16207" stroke-width="1.6"/>
<text x="940.0" y="362.7" font-size="15" fill="#422006" text-anchor="middle" font-weight="700">firmware-qemu.yml</text>
<text x="940.0" y="382.9" font-size="12.5" fill="#422006" text-anchor="middle">container espressif/idf:v5.4</text>
<text x="940.0" y="401.1" font-size="12.5" fill="#422006" text-anchor="middle">firmware-qemu · firmware-size · ota-rollback</text>
<text x="940.0" y="419.2" font-size="12.5" fill="#422006" text-anchor="middle">agent-firmware · uart-trace</text>
<rect x="690" y="490" width="500" height="110" rx="10" fill="#fef9c3" stroke="#a16207" stroke-width="1.6"/>
<text x="940.0" y="531.8" font-size="15" fill="#422006" text-anchor="middle" font-weight="700">security.yml · release-pypi.yml</text>
<text x="940.0" y="552.0" font-size="12.5" fill="#422006" text-anchor="middle">pip-audit · gitleaks · CodeQL · actionlint</text>
<text x="940.0" y="570.1" font-size="12.5" fill="#422006" text-anchor="middle">build · SBOM · attest · PyPI at I6</text>
<rect x="690" y="640" width="500" height="120" rx="10" fill="#f8fafc" stroke="#a16207" stroke-width="1.6" stroke-dasharray="7 5"/>
<text x="940.0" y="677.7" font-size="15" fill="#475569" text-anchor="middle" font-weight="700">Self-hosted runner with a Box-3</text>
<text x="940.0" y="697.9" font-size="12.5" fill="#475569" text-anchor="middle">nightly-hardware: memory-spike</text>
<text x="940.0" y="716.1" font-size="12.5" fill="#475569" text-anchor="middle">TSK-S4-05</text>
<text x="940.0" y="734.2" font-size="12.5" fill="#475569" text-anchor="middle" font-style="italic">○ planned</text>
<rect x="1310" y="150" width="420" height="150" rx="10" fill="#f8fafc" stroke="#15803d" stroke-width="1.6" stroke-dasharray="7 5"/>
<text x="1520.0" y="193.6" font-size="15" fill="#475569" text-anchor="middle" font-weight="700">Raspberry Pi 5 + I2S HAT</text>
<text x="1520.0" y="213.9" font-size="12.5" fill="#475569" text-anchor="middle">neuroedge --target linux</text>
<text x="1520.0" y="232.0" font-size="12.5" fill="#475569" text-anchor="middle">libgpiod · hwmon · PipeWire AEC</text>
<text x="1520.0" y="250.1" font-size="12.5" fill="#475569" text-anchor="middle">TSK-I2-01 · board not arrived</text>
<text x="1520.0" y="268.2" font-size="12.5" fill="#475569" text-anchor="middle" font-style="italic">○ planned</text>
<rect x="1310" y="340" width="420" height="150" rx="10" fill="#f8fafc" stroke="#15803d" stroke-width="1.6" stroke-dasharray="7 5"/>
<text x="1520.0" y="383.6" font-size="15" fill="#475569" text-anchor="middle" font-weight="700">ESP32-S3-BOX-3</text>
<text x="1520.0" y="403.9" font-size="12.5" fill="#475569" text-anchor="middle">firmware from build --target esp32s3</text>
<text x="1520.0" y="422.0" font-size="12.5" fill="#475569" text-anchor="middle">UART to the host · OTA over Wi-Fi</text>
<text x="1520.0" y="440.1" font-size="12.5" fill="#475569" text-anchor="middle">TSK-S4-12 · board not arrived</text>
<text x="1520.0" y="458.2" font-size="12.5" fill="#475569" text-anchor="middle" font-style="italic">○ planned</text>
<rect x="1310" y="530" width="420" height="110" rx="10" fill="#ffedd5" stroke="#c2410c" stroke-width="1.6"/>
<text x="1520.0" y="580.8" font-size="15" fill="#431407" text-anchor="middle" font-weight="700">OTA image server</text>
<text x="1520.0" y="601.1" font-size="12.5" fill="#431407" text-anchor="middle">any static HTTP(S) server</text>
<rect x="1310" y="670" width="420" height="110" rx="10" fill="#ffedd5" stroke="#c2410c" stroke-width="1.6"/>
<text x="1520.0" y="720.8" font-size="15" fill="#431407" text-anchor="middle" font-weight="700">Model and speech providers</text>
<text x="1520.0" y="741.1" font-size="12.5" fill="#431407" text-anchor="middle">HTTPS, keys from environment</text>
<rect x="152.8" y="274.5" width="74.4" height="21.0" rx="4" fill="#ffffff" fill-opacity="0.96" stroke="#e2e8f0" stroke-width="0.8"/>
<text x="190.0" y="287.0" font-size="11.5" fill="#1e293b" text-anchor="middle" font-style="italic">HTTP · SSE</text>
<rect x="428.9" y="274.5" width="42.2" height="21.0" rx="4" fill="#ffffff" fill-opacity="0.96" stroke="#e2e8f0" stroke-width="0.8"/>
<text x="450.0" y="287.0" font-size="11.5" fill="#1e293b" text-anchor="middle" font-style="italic">stdio</text>
<rect x="573.1" y="429.5" width="93.7" height="21.0" rx="4" fill="#ffffff" fill-opacity="0.96" stroke="#e2e8f0" stroke-width="0.8"/>
<text x="620.0" y="442.0" font-size="11.5" fill="#1e293b" text-anchor="middle" font-style="italic">build/esp32s3</text>
<rect x="1486.0" y="499.5" width="68.0" height="21.0" rx="4" fill="#ffffff" fill-opacity="0.96" stroke="#e2e8f0" stroke-width="0.8"/>
<text x="1520.0" y="512.0" font-size="11.5" fill="#1e293b" text-anchor="middle" font-style="italic">GET image</text>
<rect x="1058.9" y="869.5" width="42.2" height="21.0" rx="4" fill="#ffffff" fill-opacity="0.96" stroke="#e2e8f0" stroke-width="0.8"/>
<text x="1080.0" y="882.0" font-size="11.5" fill="#1e293b" text-anchor="middle" font-style="italic">HTTPS</text>
<rect x="1546.56" y="60" width="32" height="14" rx="3" fill="#ffffff" stroke="#475569" stroke-width="1.4" stroke-dasharray="7 5"/>
<text x="1590.6" y="71.0" font-size="12" fill="#334155" text-anchor="start">○ planned — not in code yet</text>
<rect x="1566.72" y="40" width="32" height="14" rx="3" fill="#ffffff" stroke="#475569" stroke-width="1.4"/>
<text x="1610.7" y="51.0" font-size="12" fill="#334155" text-anchor="start">◐ partial — part in code</text>
<rect x="1580.16" y="20" width="32" height="14" rx="3" fill="#ffffff" stroke="#475569" stroke-width="1.4"/>
<text x="1624.2" y="31.0" font-size="12" fill="#334155" text-anchor="start">done — in code on main</text>
</svg>
